<svg width="19" height="29" viewBox="0 0 19 29" fill="none" xmlns="http://www.w3.org/2000/svg">
<path fill-rule="evenodd" clip-rule="evenodd" d="M11.8869 14.5014L17.8613 8.50215C18.2095 8.15336 18.3823 7.6658 18.3349 7.17519C18.2862 6.68397 18.0196 6.24023 17.6117 5.9651L10.0146 0.852667C9.50756 0.51058 8.84834 0.477711 8.30964 0.764406C7.77034 1.05171 7.42277 1.61293 7.42277 2.22284V10.1645L3.47295 6.17145C2.83017 5.5238 1.79417 5.51954 1.14651 6.1611C0.498861 6.80388 0.493991 7.85023 1.13677 8.49788L7.08982 14.5002L1.13677 20.502C0.493991 21.149 0.498861 22.1954 1.14651 22.8394C1.79417 23.4815 2.83077 23.4779 3.47295 22.829L7.42277 18.836V26.777C7.42277 27.3875 7.77034 27.9488 8.30964 28.2354C8.84834 28.5228 9.50756 28.4893 10.0146 28.1466L17.6111 23.036C18.0202 22.7602 18.2862 22.3159 18.3343 21.8259C18.3817 21.3347 18.2089 20.8483 17.8607 20.4983L11.8869 14.5014ZM10.7755 5.3278L14.1336 7.58788L10.7755 10.9594V5.3278ZM10.7755 18.0441V23.6757L14.1336 21.4156L10.7755 18.0441Z" fill="white"/>
</svg>
