<svg width="33" height="33" viewBox="0 0 33 33" fill="none" xmlns="http://www.w3.org/2000/svg">
<path fill-rule="evenodd" clip-rule="evenodd" d="M16.5 5.10933C15.948 5.10933 15.5 4.66133 15.5 4.10933V1.5C15.5 0.948 15.948 0.5 16.5 0.5C17.052 0.5 17.5 0.948 17.5 1.5V4.10933C17.5 4.66133 17.052 5.10933 16.5 5.10933ZM25.2613 8.73867C25.0053 8.73867 24.7493 8.64133 24.5547 8.44533C24.164 8.05467 24.164 7.42133 24.5547 7.03067L26.4 5.18533C26.7907 4.79467 27.424 4.79467 27.8147 5.18533C28.2053 5.576 28.2053 6.20933 27.8147 6.6L25.9693 8.44533C25.7733 8.64 25.5173 8.73867 25.2613 8.73867ZM28.8907 17.5H31.5C32.052 17.5 32.5 17.052 32.5 16.5C32.5 15.948 32.052 15.5 31.5 15.5H28.8907C28.3387 15.5 27.8907 15.948 27.8907 16.5C27.8907 17.052 28.3387 17.5 28.8907 17.5ZM27.1067 28.1067C26.8507 28.1067 26.5947 28.0093 26.4 27.8133L24.5547 25.968C24.164 25.5773 24.164 24.944 24.5547 24.5533C24.9453 24.1627 25.5787 24.1627 25.9693 24.5533L27.8147 26.3987C28.2053 26.7893 28.2053 27.4227 27.8147 27.8133C27.6187 28.0093 27.3627 28.1067 27.1067 28.1067ZM5.18667 27.8133C5.38133 28.0093 5.63733 28.1067 5.89333 28.1067C6.14933 28.1067 6.40533 28.0093 6.60133 27.8133L8.44667 25.968C8.83733 25.5773 8.83733 24.944 8.44667 24.5533C8.056 24.1627 7.42267 24.1627 7.032 24.5533L5.18667 26.3987C4.796 26.7893 4.796 27.4227 5.18667 27.8133ZM4.10933 17.5H1.5C0.948 17.5 0.5 17.052 0.5 16.5C0.5 15.948 0.948 15.5 1.5 15.5H4.10933C4.66133 15.5 5.10933 15.948 5.10933 16.5C5.10933 17.052 4.66133 17.5 4.10933 17.5ZM7.032 8.44533C7.22667 8.64133 7.48267 8.73867 7.73867 8.73867C7.99467 8.73867 8.24933 8.64 8.44667 8.44533C8.83733 8.05467 8.83733 7.42133 8.44667 7.03067L6.60133 5.18533C6.21067 4.79467 5.57733 4.79467 5.18667 5.18533C4.796 5.576 4.796 6.20933 5.18667 6.6L7.032 8.44533ZM20.5 28.5V30.1667C20.5 31.4467 19.4467 32.5 18.1667 32.5H14.8333C13.7133 32.5 12.5 31.6467 12.5 29.78V28.5H20.5ZM22.38 9.24667C20.1933 7.47333 17.3133 6.78 14.5 7.38C10.9667 8.11333 8.1 10.9933 7.36667 14.5267C6.62 18.1533 7.98 21.7533 10.8867 23.9533C11.6733 24.54 12.22 25.4467 12.4067 26.5V26.5133C12.4333 26.5 12.4733 26.5 12.5 26.5H20.5C20.5267 26.5 20.54 26.5 20.5667 26.5133V26.5C20.7533 25.4867 21.3533 24.5533 22.2733 23.8333C24.5267 22.0467 25.8333 19.38 25.8333 16.5C25.8333 13.6733 24.58 11.0333 22.38 9.24667ZM21.5 17.1667C20.9533 17.1667 20.5 16.7133 20.5 16.1667C20.5 14.14 18.86 12.5 16.8333 12.5C16.2867 12.5 15.8333 12.0467 15.8333 11.5C15.8333 10.9533 16.2867 10.5 16.8333 10.5C19.9533 10.5 22.5 13.0467 22.5 16.1667C22.5 16.7133 22.0467 17.1667 21.5 17.1667Z" fill="white"/>
</svg>
