<svg width="33" height="21" viewBox="0 0 33 21" fill="none" xmlns="http://www.w3.org/2000/svg">
<path fill-rule="evenodd" clip-rule="evenodd" d="M29.8392 4.5H30.1605C31.4472 4.5 32.4939 5.54667 32.4939 6.83333V14.1667C32.4939 15.4533 31.4472 16.5 30.1605 16.5H29.8392V16.8333C29.8392 18.856 28.1939 20.5 26.1725 20.5H4.17253C2.15119 20.5 0.505859 18.856 0.505859 16.8333V4.16667C0.505859 2.144 2.15119 0.5 4.17253 0.5H26.1725C28.1939 0.5 29.8392 2.144 29.8392 4.16667V4.5ZM8.83919 16.5C9.39119 16.5 9.83919 16.052 9.83919 15.5V5.5C9.83919 4.948 9.39119 4.5 8.83919 4.5H5.50586C4.95386 4.5 4.50586 4.948 4.50586 5.5V15.5C4.50586 16.052 4.95386 16.5 5.50586 16.5H8.83919ZM17.8392 15.5C17.8392 16.052 17.3912 16.5 16.8392 16.5H13.5059C12.9539 16.5 12.5059 16.052 12.5059 15.5V5.5C12.5059 4.948 12.9539 4.5 13.5059 4.5H16.8392C17.3912 4.5 17.8392 4.948 17.8392 5.5V15.5ZM24.8392 16.5C25.3912 16.5 25.8392 16.052 25.8392 15.5V5.5C25.8392 4.948 25.3912 4.5 24.8392 4.5H21.5059C20.9539 4.5 20.5059 4.948 20.5059 5.5V15.5C20.5059 16.052 20.9539 16.5 21.5059 16.5H24.8392Z" fill="white"/>
</svg>
